<?xml version="1.0" encoding="UTF-8" standalone="no"?>
<!-- exported from Silhouette Studio® Business Edition V4.3.370ssbe -->

<svg
   version="1.1"
   width="101.6mm"
   height="101.6mm"
   viewBox="0 0 101.6 101.6"
   id="svg12080"
   sodipodi:docname="Vermont - Outline.svg"
   inkscape:version="1.2.2 (b0a84865, 2022-12-01)"
   xmlns:inkscape="http://www.inkscape.org/namespaces/inkscape"
   xmlns:sodipodi="http://sodipodi.sourceforge.net/DTD/sodipodi-0.dtd"
   xmlns="http://www.w3.org/2000/svg"
   xmlns:svg="http://www.w3.org/2000/svg">
  <sodipodi:namedview
     id="namedview12082"
     pagecolor="#ffffff"
     bordercolor="#ffffff"
     borderopacity="0.25"
     inkscape:showpageshadow="2"
     inkscape:pageopacity="0.0"
     inkscape:pagecheckerboard="0"
     inkscape:deskcolor="#ffffff"
     inkscape:document-units="mm"
     showgrid="false"
     inkscape:zoom="2.1484375"
     inkscape:cx="192.46545"
     inkscape:cy="192.46545"
     inkscape:window-width="1390"
     inkscape:window-height="975"
     inkscape:window-x="1896"
     inkscape:window-y="25"
     inkscape:window-maximized="0"
     inkscape:current-layer="svg12080" />
  <defs
     id="defs12070" />
  <path
     d="M 43.34601 95.5126 C 36.22443 95.30437 27.49113 95.0101 26.93737 94.95972 L 26.32326 94.90384 L 26.11506 94.18346 C 25.45079 91.88498 25.38701 90.61928 25.89921 89.89999 C 26.11073 89.60297 26.11913 89.4159 26.49184 76.72076 C 26.69976 69.63792 26.84215 63.67224 26.80825 63.46371 C 26.75325 63.12531 26.6983 63.06667 26.29725 62.91855 C 25.90082 62.77212 25.8326 62.70096 25.7182 62.31453 C 25.64689 62.07361 25.61518 61.72787 25.64777 61.54623 C 25.73161 61.07882 25.63597 60.86448 25.27723 60.71591 C 24.98561 60.59512 24.94963 60.60467 24.72901 60.86114 C 24.44214 61.1946 24.43798 61.29022 24.69346 61.67596 C 25.15423 62.37165 24.76112 62.79456 23.75061 62.69031 C 22.82075 62.59435 22.37798 62.43909 22.0235 62.08465 C 21.57814 61.6393 21.52771 61.23489 21.71696 59.62588 C 21.88667 58.18289 22.02198 57.73946 22.50832 57.03267 C 22.84904 56.53749 23.28949 55.51183 23.28949 55.2136 C 23.28949 55.10409 23.36384 54.85862 23.45468 54.66811 C 23.61793 54.3258 23.61631 54.31723 23.318 53.93772 C 22.66225 53.1035 22.49103 52.48037 22.72943 51.79572 C 23.00897 50.99292 22.89628 49.6931 22.54714 49.6931 C 22.46704 49.6931 22.31254 49.58 22.20378 49.44176 C 22.0283 49.21867 22.00583 49.02983 22.00397 47.76217 C 22.00133 45.97438 21.85623 44.55239 21.67017 44.49118 C 21.59559 44.46666 21.38789 44.30042 21.20863 44.12177 C 20.72633 43.64109 20.74848 43.50645 21.51781 42.24232 C 21.69175 41.9565 21.95008 41.20126 22.18407 40.2944 C 22.39427 39.47978 22.65654 38.57746 22.76689 38.28924 C 23.01952 37.62951 23.83599 36.59597 24.50311 36.09148 L 25.01447 35.70477 L 24.96444 35.13579 C 24.93388 34.78808 24.77046 34.24214 24.54424 33.73193 C 23.78121 32.011 23.81998 32.23673 24.12609 31.29681 C 24.27532 30.83865 24.53129 30.27897 24.69495 30.05307 C 25.11201 29.47738 25.216 28.89957 25.13448 27.6111 L 25.06551 26.5211 L 24.57322 25.87087 C 24.11018 25.25925 23.49007 24.05957 23.49007 23.77537 C 23.49007 23.70475 23.30956 23.44953 23.08893 23.20819 C 22.64744 22.72524 22.63265 22.642 22.7847 21.49489 C 22.83801 21.0928 22.93031 20.39452 22.98979 19.94318 C 23.11751 18.97431 23.59569 17.3868 24.00278 16.58019 C 24.31431 15.96289 24.35092 15.69738 24.18865 15.23191 C 24.07211 14.89763 23.39359 14.29001 22.84449 14.02818 C 22.47891 13.85386 22.31505 13.54687 22.37591 13.15034 C 22.3922 13.04414 22.60005 12.57034 22.83778 12.09746 C 23.07553 11.6246 23.32959 11.03623 23.40236 10.78998 C 23.48187 10.52104 23.70638 10.16313 23.96464 9.893605 C 24.34671 9.494901 24.38754 9.407425 24.33135 9.10796 C 24.29658 8.922618 24.11087 8.582783 23.91868 8.352756 C 23.61044 7.983848 23.57495 7.88395 23.61761 7.505569 C 23.6442 7.269637 23.81013 6.838732 23.98635 6.548001 L 24.30674 6.019403 L 52.05273 6.055532 C 73.58415 6.083569 79.82715 6.11884 79.92558 6.213007 C 80.02756 6.310572 80.0128 6.449422 79.85035 6.921566 C 79.59853 7.653414 79.59751 7.887205 79.84402 8.370377 C 79.95166 8.581367 80.094 8.974404 80.16032 9.243789 C 80.22664 9.513171 80.39161 9.948118 80.5269 10.21034 C 80.86053 10.85688 80.78214 11.08487 79.9522 11.88208 C 79.41263 12.40038 79.24128 12.63771 79.15063 12.9925 C 78.92222 13.88632 78.81675 14.12745 78.4979 14.48466 C 78.1482 14.87644 77.97194 15.54269 78.15852 15.76748 C 78.35064 15.99895 78.15978 16.36408 77.59399 16.84741 C 76.69668 17.61393 76.6824 17.57922 79.08189 20.46298 C 79.26546 20.68358 79.47614 20.97689 79.55006 21.11477 C 79.73754 21.46451 79.70498 23.37536 79.49947 24.08219 C 79.35141 24.59152 79.30716 24.64185 78.76804 24.91422 C 77.96683 25.31899 77.8417 25.48978 77.73727 26.32129 C 77.68824 26.71175 77.55125 27.2564 77.43285 27.53164 C 77.21162 28.04586 77.0737 28.18743 75.62836 29.38417 C 75.16429 29.76844 74.64819 30.26365 74.48142 30.48465 C 74.06731 31.03345 73.66506 31.14017 72.27541 31.0699 L 71.17018 31.01404 L 71.04478 31.62119 C 70.82733 32.67389 70.10616 33.04586 68.31635 33.02855 C 67.92118 33.02471 67.51773 33.08643 67.29169 33.18527 C 67.06254 33.28547 66.64451 33.3483 66.20706 33.3483 C 65.38013 33.3483 65.28614 33.3887 64.61378 34.03332 L 64.1102 34.51611 L 64.04245 35.63185 C 63.99678 36.38391 64.01515 36.9383 64.09885 37.33264 C 64.20203 37.81884 64.19889 37.97641 64.08041 38.26522 C 63.94662 38.59121 63.95538 38.65 64.22163 39.21439 C 64.59544 40.00672 64.60313 40.81079 64.24871 42.03374 C 63.8913 43.26698 63.60456 43.73918 62.7346 44.52705 C 61.89902 45.28378 61.89238 45.30719 62.237 46.28378 C 62.32456 46.53196 62.4697 47.0773 62.5595 47.49564 C 62.70576 48.17714 62.70701 48.28674 62.57149 48.54877 C 62.35607 48.96531 62.13601 49.13823 61.39668 49.47188 C 60.54538 49.85604 60.40181 50.03309 60.28763 50.83921 C 60.17501 51.63437 60.02966 52.00441 59.55077 52.71548 C 59.3527 53.00956 59.19064 53.32156 59.19064 53.40881 C 59.19064 53.9429 58.84694 54.63948 58.24355 55.32815 C 57.35265 56.34499 56.86453 56.84447 56.63971 56.96924 C 56.37107 57.11833 56.18657 59.14987 56.36376 60.00771 C 56.53261 60.82513 56.51294 61.19987 56.27535 61.69065 C 56.06568 62.12373 55.6125 62.48342 55.10588 62.61891 C 54.89051 62.67651 54.81849 62.77267 54.7559 63.08616 C 54.64171 63.65812 54.48861 63.90314 54.16057 64.03902 C 53.96674 64.11931 53.88633 64.21293 53.9181 64.32138 C 53.94424 64.41061 54.01176 64.82703 54.06814 65.2467 C 54.19045 66.15751 54.09516 66.86572 53.74323 67.66142 C 53.42854 68.37294 53.25229 69.47818 53.33767 70.20461 C 53.38645 70.61957 53.35595 70.90052 53.21811 71.30598 C 53.06158 71.76644 53.04999 71.93166 53.14281 72.37851 C 53.26531 72.96828 53.28025 72.90977 52.54636 74.71168 C 52.14408 75.69931 52.0901 75.92788 52.0303 76.89642 C 51.97689 77.76119 51.99189 78.00651 52.10504 78.11962 C 52.30189 78.31647 52.42197 80.01768 52.27702 80.55596 C 52.20341 80.82932 52.03257 81.0816 51.76745 81.30854 C 51.23997 81.76 51.24847 82.02252 51.82699 83.14661 C 52.37731 84.21593 52.38818 84.64729 51.88184 85.32491 C 51.71045 85.55427 51.42495 86.00772 51.24738 86.3326 C 50.83501 87.08704 50.43777 87.294 49.84728 87.06207 C 49.40961 86.89016 49.40588 86.89441 49.62468 87.31747 C 49.9279 87.9038 49.61406 88.77557 49.0334 88.95984 C 48.71108 89.06213 48.84186 90.07122 49.29371 90.96841 C 49.59882 91.57423 49.76059 91.76106 50.37366 92.21549 C 51.19736 92.82609 51.58664 93.31244 51.82426 94.02782 C 52.00368 94.56799 51.96476 95.03395 51.71226 95.36833 C 51.56774 95.5597 51.43593 95.56943 48.83229 95.58106 C 47.33162 95.58775 44.86279 95.55694 43.34601 95.5126 Z M 50.70567 94.4337 C 50.79538 94.28853 50.39834 93.75066 49.90597 93.35041 C 48.80272 92.45357 48.5945 92.21432 48.21676 91.40942 C 47.50463 89.89203 47.50406 88.5014 48.21539 88.08175 C 48.4053 87.96971 48.56068 87.87121 48.56066 87.86287 C 48.56063 87.85452 48.47035 87.61031 48.36006 87.32018 C 48.12021 86.68919 48.10662 86.28558 48.31182 85.88882 C 48.51474 85.49643 48.88677 85.41312 49.46015 85.63167 C 49.71006 85.72693 49.96472 85.81326 50.02604 85.82353 C 50.08736 85.83379 50.36465 85.50961 50.64225 85.10311 L 51.14698 84.36399 L 50.75436 83.59896 C 50.19842 82.51567 49.99037 81.16801 50.31326 80.74173 C 50.39114 80.63887 50.60405 80.52441 50.78638 80.48734 C 51.11089 80.42136 51.11853 80.40767 51.14821 79.83907 C 51.1673 79.47305 51.11731 79.09792 51.01302 78.82487 C 50.87981 78.47604 50.85506 78.12068 50.88619 77.00285 L 50.92484 75.61414 L 51.46108 74.36072 C 51.75601 73.67133 51.99571 72.9719 51.99376 72.80647 C 51.9918 72.64101 51.98335 72.2504 51.97498 71.93845 C 51.96663 71.62649 52.02204 71.22038 52.09818 71.03599 C 52.18742 70.8198 52.22119 70.46664 52.19321 70.04193 C 52.13313 69.12987 52.31194 68.10394 52.68293 67.23221 C 53.02155 66.4365 53.01476 66.58756 52.81196 64.36095 C 52.73602 63.52721 52.87974 63.18702 53.38171 63.01205 C 53.60644 62.93372 53.67519 62.8475 53.67548 62.64381 C 53.67616 62.16314 54.01994 61.74857 54.54473 61.59556 C 54.81306 61.51731 55.10011 61.3511 55.20162 61.21515 C 55.37162 60.98746 55.37268 60.93928 55.22015 60.37219 C 55.07801 59.84367 55.07325 59.60046 55.18079 58.36688 C 55.32991 56.65657 55.49145 56.21135 56.07009 55.91616 C 56.29351 55.80219 56.52811 55.61214 56.59144 55.49383 C 56.65476 55.37552 56.96928 54.99635 57.29037 54.65123 C 57.69632 54.21489 57.90815 53.89106 57.98574 53.58817 C 58.18694 52.80279 58.28793 52.56532 58.68109 51.95269 C 58.97255 51.49858 59.08699 51.19755 59.13981 50.74599 C 59.27933 49.55362 59.65129 49.04642 60.77008 48.52303 C 61.16995 48.33596 61.49709 48.173 61.49705 48.16088 C 61.49628 47.95255 61.15185 46.58895 61.05048 46.39297 C 60.83225 45.97097 60.76984 45.44658 60.8864 45.0138 C 60.96835 44.7095 61.20764 44.40855 61.8913 43.74989 C 62.75747 42.91542 62.79779 42.85646 63.05244 42.05264 C 63.4741 40.72174 63.48238 40.39748 63.11474 39.61192 C 62.80302 38.94587 62.72221 38.40359 62.88644 38.0797 C 62.99513 37.86535 62.86264 35.13536 62.71767 34.60174 C 62.63786 34.30803 62.6395 34.09716 62.72375 33.81418 C 62.85195 33.38363 63.02852 33.26304 63.25525 33.45119 C 63.42074 33.58854 63.48357 33.54782 64.21745 32.82738 C 64.66723 32.38583 65.38239 32.14565 66.25372 32.14349 C 66.58844 32.14266 67.04277 32.07695 67.2634 31.99747 C 67.49116 31.91543 68.04094 31.85107 68.53547 31.84859 C 69.7752 31.84232 69.86549 31.7926 70.01472 31.03413 C 70.10524 30.57414 70.21723 30.32914 70.43785 30.10853 L 70.7379 29.8085 L 72.12405 29.87466 L 73.51017 29.94083 L 73.69611 29.64733 C 73.8688 29.37475 74.80534 28.53432 75.81418 27.74663 C 76.36117 27.31956 76.41946 27.20193 76.60184 26.15709 C 76.68496 25.68102 76.81358 25.17431 76.88765 25.03107 C 77.09585 24.62848 77.55099 24.21239 78.00539 24.0092 C 78.47813 23.79783 78.5422 23.60045 78.5441 22.34923 C 78.54517 21.66218 78.52755 21.60724 78.16913 21.17927 C 76.1158 18.72725 75.83612 18.31129 75.83978 17.71472 C 75.84276 17.22798 76.13768 16.62507 76.57745 16.20669 C 76.84572 15.95149 76.94069 15.7781 76.94069 15.54353 C 76.94069 15.36884 76.98631 14.98525 77.0421 14.69108 C 77.12177 14.27099 77.21642 14.09617 77.4831 13.87636 C 77.73647 13.66755 77.85394 13.46257 77.94595 13.06888 C 78.14599 12.21313 78.30615 11.91492 78.90035 11.292 C 79.40602 10.76192 79.4513 10.67964 79.34574 10.48243 C 79.28113 10.3617 79.14499 9.962455 79.04321 9.595227 C 78.94143 9.227986 78.78802 8.793018 78.7023 8.628626 C 78.61657 8.464222 78.54615 8.098377 78.54581 7.815616 L 78.54521 7.301506 L 62.87603 7.232625 C 54.25799 7.194742 42.17583 7.17791 36.02676 7.195224 C 25.2658 7.225517 24.84529 7.233615 24.8111 7.411125 C 24.79156 7.512556 24.87272 7.698928 24.99143 7.825283 C 25.26882 8.120528 25.49571 8.877604 25.49571 9.507886 C 25.49571 9.96779 25.46177 10.0351 25.01058 10.46994 C 24.65963 10.80817 24.47631 11.08993 24.34776 11.48869 C 24.25003 11.79185 24.03951 12.27633 23.87993 12.56531 L 23.58977 13.09074 L 24.15273 13.40843 C 24.79978 13.77358 25.01612 14.07647 25.30802 15.0259 C 25.55434 15.82709 25.51211 16.2176 25.09941 16.95562 C 24.60068 17.84745 24.19508 19.32279 24.02177 20.87537 L 23.86222 22.30482 L 24.1322 22.62566 C 24.4527 23.00652 24.79373 23.64971 24.79373 23.87331 C 24.79373 24.11761 25.05372 24.56817 25.68929 25.42528 L 26.2689 26.20696 L 26.29653 27.09527 C 26.35834 29.0828 26.20556 29.9866 25.69913 30.62953 C 25.54217 30.8288 25.3366 31.24204 25.24234 31.54785 L 25.07093 32.10386 L 25.36957 32.701 C 25.88828 33.73816 26.1324 34.62516 26.13342 35.47628 C 26.13451 36.38091 25.98344 36.74534 25.57338 36.82735 C 25.17901 36.90621 24.26775 37.83572 23.95564 38.47747 C 23.81217 38.77247 23.51714 39.69069 23.30001 40.51796 C 22.83951 42.27241 22.77399 42.45741 22.43815 42.95161 C 22.12761 43.40855 22.12768 43.41712 22.44231 43.56047 C 22.58306 43.62459 22.75894 43.82363 22.83314 44.00274 C 22.98581 44.37126 23.24414 47.81168 23.15868 48.33829 C 23.1149 48.60802 23.14058 48.69323 23.27888 48.73711 C 23.72631 48.87911 24.4574 50.03726 24.16927 50.14764 C 24.08244 50.18091 24.05283 50.35804 24.07669 50.70162 C 24.09669 50.98973 24.04284 51.41735 23.95133 51.6971 C 23.8631 51.96683 23.79091 52.27441 23.79091 52.38058 C 23.79091 52.48678 24.01655 52.8793 24.29232 53.25286 C 24.84348 53.99944 24.93687 54.45787 24.62772 54.89922 C 24.53642 55.02957 24.42495 55.33293 24.38004 55.57335 C 24.29394 56.03416 23.80179 57.12087 23.29404 57.97128 C 23.03396 58.40691 22.97246 58.65351 22.85654 59.72607 C 22.78235 60.41244 22.74113 61.05015 22.76493 61.14318 C 22.78871 61.23624 22.93334 61.356 23.08631 61.40932 C 23.36382 61.50605 23.36457 61.50506 23.42788 60.96645 C 23.50313 60.32625 23.76877 59.71838 23.94392 59.78559 C 24.01221 59.8118 24.19281 59.71764 24.34527 59.57636 C 24.69392 59.25327 25.01646 59.25162 25.73491 59.56932 C 26.11254 59.73631 26.366 59.92756 26.49921 60.14593 C 26.69948 60.47424 26.95695 61.25912 27.01756 61.72608 C 27.04278 61.9204 27.13186 61.99698 27.41371 62.06662 L 27.77733 62.15648 L 27.89926 63.01923 C 28.00164 63.74354 27.96249 65.86112 27.65526 76.21581 C 27.45399 82.9994 27.317 88.86549 27.35082 89.25154 L 27.41231 89.95347 L 27.04224 90.34976 L 26.67217 90.74608 L 26.73205 91.55306 C 26.78597 92.27989 27.09069 93.63737 27.23152 93.77819 C 27.32593 93.8726 42.08805 94.34582 49.58269 94.4947 C 50.17235 94.50639 50.6777 94.47895 50.70567 94.4337 Z"
     fill="#ffffff"
     fill-opacity="1"
     stroke="#ffffff"
     stroke-opacity="1"
     stroke-width="4"
     stroke-linecap="round"
     stroke-linejoin="round"
     id="path12074"
     style="fill:#ffffff" />
</svg>
